<svg xmlns="http://www.w3.org/2000/svg" width="144" height="30" viewBox="0 0 144 30">
    <g fill="none" fill-rule="evenodd">
        <g>
            <g>
                <path fill="#979797" d="M138.513 13.075h5.27v-5.48h-5.27v5.48zm4.974 12.766c-.758 2.547-2.47 3.611-5.006 4.159v-2.225c1.745-.58 1.91-1.676 2.041-3.287h-2.009v-5.513h5.27V24.1c0 .58-.132 1.193-.296 1.741z" transform="translate(-1040 -198) translate(1040 198)"/>
                <path fill="#FFF" d="M6 0v25H0V0h6zm11.517 7.19c4.71 0 8.76 2.643 8.76 8.704v1.515H14.16c.164 2.225 1.481 3.514 3.59 3.514 1.942 0 2.766-.87 2.996-2h5.533c-.527 3.805-3.524 5.965-8.727 5.965-5.402 0-9.353-3.094-9.353-8.608v-.258c0-5.416 4.116-8.833 9.32-8.833zM64.92.225v24.275h-5.895v-2.74c-.856 1.74-2.766 3.127-5.368 3.127-3.985 0-7.245-2.805-7.245-8.64v-.258c0-5.738 3.227-8.8 7.311-8.8 2.701 0 4.315 1.128 5.302 2.836v-9.8h5.895zM87.655 7.19c4.71 0 8.76 2.644 8.76 8.705v1.515H84.297c.165 2.225 1.482 3.514 3.59 3.514 1.943 0 2.767-.87 2.997-2h5.533c-.527 3.805-3.524 5.965-8.727 5.965-5.402 0-9.354-3.094-9.354-8.608v-.258c0-5.416 4.117-8.833 9.32-8.833zm-51.024 0c4.742 0 7.772 1.903 7.772 6.384V24.5h-5.73v-1.966c-.824 1.225-2.339 2.353-5.105 2.353-3.096 0-5.83-1.483-5.83-5.061 0-3.966 3.425-5.513 9.156-5.513h1.647v-.387c0-1.611-.396-2.675-2.273-2.675-1.614 0-2.207.934-2.338 1.998h-5.533c.264-4.062 3.524-6.06 8.234-6.06zm36.994-3.062v3.514h3.393v3.933h-3.393v6.963c0 1.226.627 1.773 1.746 1.773.66 0 1.153-.096 1.68-.29v4.384c-.757.194-1.877.484-3.26.484-3.886 0-6.06-1.838-6.06-5.803V4.127h5.894zm33.583 3.063c4.216 0 8.102 1.804 8.431 6.93h-5.533c-.263-1.58-1.053-2.45-2.766-2.45-2.075 0-3.293 1.451-3.293 4.288v.258c0 2.934 1.152 4.45 3.392 4.45 1.646 0 2.8-.968 2.997-2.806h5.302c-.164 4.256-3.096 7.028-8.661 7.028-5.138 0-9.058-2.934-9.058-8.607v-.258c0-5.61 4.118-8.833 9.19-8.833zM123.543.226v10.123c.922-1.74 2.8-3.16 5.665-3.16 3.326 0 5.632 2.031 5.632 6.351v10.962h-5.895V14.7c0-1.902-.758-2.837-2.47-2.837-1.746 0-2.932 1.031-2.932 3.191v9.447h-5.895V.226h5.895zM38.541 17.57h-1.548c-2.371 0-3.425.451-3.425 1.838 0 .966.658 1.58 2.042 1.58 1.679 0 2.93-.936 2.93-2.386V17.57zm17.257-6.028c-2.207 0-3.393 1.45-3.393 4.384v.257c0 2.838 1.285 4.289 3.327 4.289 2.141 0 3.458-1.45 3.458-4.32v-.258c0-2.837-1.218-4.352-3.392-4.352zm-38.28-.548c-1.778 0-2.997 1.128-3.293 3.159h6.323c-.099-2.03-1.12-3.16-3.03-3.16zm70.137 0c-1.778 0-2.997 1.128-3.293 3.159h6.323c-.098-2.03-1.12-3.16-3.03-3.16z" transform="translate(-1040 -198) translate(1040 198)"/>
            </g>
        </g>
    </g>
</svg>
